<?xml version="1.0" encoding="UTF-8" standalone="no"?>
<svg width="255px" height="59px" viewBox="0 0 255 59" version="1.1" xmlns="http://www.w3.org/2000/svg" xmlns:xlink="http://www.w3.org/1999/xlink" xmlns:sketch="http://www.bohemiancoding.com/sketch/ns">
    <title>logo</title>
    <description>Created with Sketch (http://www.bohemiancoding.com/sketch)</description>
    <defs></defs>
    <g id="Page-1" stroke="none" stroke-width="1" fill="none" fill-rule="evenodd" sketch:type="MSPage">
        <g id="logo" sketch:type="MSLayerGroup" transform="translate(0.000000, 1.000000)">
            <g id="Page-1" sketch:type="MSShapeGroup">
                <g id="Imported-Layers">
                    <path d="M193.819913,22.5961411 C193.819913,22.5961411 199.020737,19.9979471 198.632297,24.4713932 C198.632297,24.4713932 201.060685,19.279316 205.893131,21.4929757 C207.869479,22.3995629 209.246947,24.6770243 209.895769,28.49521 C211.027794,35.1560193 213.913346,35.6483268 215.462409,32.9501193 C215.462409,32.9501193 212.15,30.8308689 212.714305,26.4992521 C213.762238,18.4567915 224.966378,20.0833033 227.09682,25.509895 C227.09682,25.509895 223.235899,15.9297277 227.929617,7.71224371 C227.929617,7.71224371 231.828528,4.91962689 232.825666,7.53980672 C231.496007,12.1749126 231.013232,26.6928126 231.013232,26.6928126 C231.013232,26.6928126 231.630467,32.2948589 233.784387,31.7999647 C237.763973,30.8856176 238.576709,21.2873446 237.396876,18.0162151 C236.85861,16.7233689 242.756065,14.7735378 247.207328,22.6237311 C254.998319,36.3656647 245.337267,42.1392857 239.578115,39.3858983 C234.771706,37.0890378 238.214734,28.6465235 246.971276,30.5235 L247.07799,31.6775344 C244.568499,30.4838396 239.323708,31.2701521 239.231081,35.5164126 C239.161929,38.6577832 244.711068,39.0931865 245.529781,32.9255471 C246.257572,27.4433446 241.360669,21.8507824 240.862954,22.0771058 C240.365665,22.3038604 238.753427,33.0298714 233.439487,33.1501462 C230.881761,33.2083436 229.330989,30.3683068 229.330989,30.3683068 C229.067617,31.8284168 225.03254,36.6967436 217.206546,33.7303967 C215.073542,35.7276479 212.185856,36.1074403 208.799173,34.5227446 C205.413772,32.9380487 204.875079,29.21729 204.273211,26.5548629 C203.697807,24.0084 200.452841,24.1006538 199.47662,25.5271386 C198.732181,26.6143538 199.10312,33.2859403 198.838896,33.3389647 C198.838896,33.3389647 195.344218,34.1481253 194.356045,33.0712564 C193.476718,32.1112135 193.843389,25.1279471 193.819913,22.5961411 L193.819913,22.5961411 L193.819913,22.5961411 Z M226.157734,27.9283235 C223.970947,23.0811201 218.22588,23.3117546 217.629989,27.0579479 C217.033669,30.8045722 220.878796,33.7894564 224.348716,31.6995201 C226.606361,30.341579 226.157734,27.9283235 226.157734,27.9283235 L226.157734,27.9283235 L226.157734,27.9283235 Z" id="Fill-1" fill="#333C46"></path>
                    <path d="M76.3279848,7.52126975 C73.5009117,9.35729243 73.3583415,5.71973446 58.7500188,4.99981008 C53.5389501,4.74503446 48.0137147,5.26708739 42.3296886,6.09047396 C42.0027163,11.0329487 39.8312953,39.0543882 37.4024797,40.2726554 C34.8323745,41.5590353 31.1217077,38.8901421 31.1217077,38.8901421 C31.1217077,38.8901421 32.698517,27.4187722 36.3686324,7.04017058 C27.9578446,8.47010421 19.3349089,10.1966294 11.001809,10.759205 C-5.03221567,11.8373672 0.148546191,-0.620342017 5.11673333,0.834163865 C10.0827862,2.29254958 5.26357209,5.88613614 10.7695989,6.97076471 C16.2794673,8.05884201 32.8760894,3.81430589 52.4560141,1.48511345 C74.0302142,-1.08117983 79.8926665,5.20587228 76.3279848,7.52126975" id="Fill-2" fill="#333C46"></path>
                    <path d="M139.150645,16.873389 C135.798538,17.3062058 135.925314,31.8133286 129.503253,32.6358529 C124.786057,33.2398135 127.058643,24.0161597 127.058643,24.0161597 C127.058643,24.0161597 125.931741,21.4434 122.599697,21.8693193 C118.871529,22.3452454 121.466392,31.8504025 117.177334,32.1560471 C116.03165,31.6827075 115.550155,19.326305 119.047821,7.53290925 C119.047821,7.53290925 116.653154,3.47977815 113.543074,6.35818235 C109.679593,9.93150757 112.559596,24.1640243 112.559596,24.1640243 C104.503099,14.8532899 94.945774,25.7103529 99.6126002,31.9086 C100.48723,33.065221 100.812495,33.3441378 100.812495,33.3441378 C99.2544673,35.9776815 95.7828405,35.0245361 95.4772109,28.844395 C95.2842716,24.9723228 94.2115803,21.8693193 92.3607289,20.7252 C87.8322042,17.9230992 83.6831554,24.8080765 83.6831554,24.8080765 C84.0720221,20.3324747 79.2054269,22.9323932 79.2054269,22.9323932 C79.2054269,22.9323932 76.8128941,32.5220446 71.8242178,33.6200371 C67.5432704,34.5615429 66.8897525,31.4184479 66.8897525,31.4184479 C66.8897525,31.4184479 72.5281049,29.5061218 74.2645586,25.7495824 C77.0626054,19.6866983 68.6334628,16.2474429 64.5778957,20.6613983 C61.3939702,24.1252261 60.911622,28.8241336 61.5980077,31.0873689 C61.5980077,31.0873689 61.0793767,33.4721722 59.1640699,33.7937672 C57.2487631,34.1145 54.815679,32.2595093 58.4426818,23.8144085 C62.0692578,15.3744807 55.2766844,16.8427815 52.5964501,19.3293228 C49.9166426,21.8158639 49.3378247,16.4457454 46.5969767,18.8671915 C44.2172496,20.9713538 46.4770299,26.5147714 44.9301007,31.9430874 C44.9301007,31.9430874 46.4778836,34.2390857 47.7870538,32.0288747 C48.8162057,30.290279 48.7948628,22.0180462 48.7948628,22.0180462 C50.3131926,23.1539747 54.2150913,21.7693058 54.347417,21.7257656 C51.6676095,27.52051 50.8851808,35.8858589 57.2952906,35.3883782 C61.4725118,35.0667832 62.2267679,32.9768471 62.2267679,32.9768471 C62.2267679,32.9768471 64.5023419,36.1307193 69.5264473,35.8716328 C72.9250817,35.6948849 77.1782836,33.6915983 79.1883526,28.9254403 C79.2515275,30.4618538 79.404769,33.0419421 79.7398517,33.4079396 C80.7267449,34.4848085 83.8893273,33.6756479 83.8893273,33.6756479 C84.1552592,33.6226235 83.8893273,27.0157008 84.5266246,25.8616664 C85.9817798,23.2380378 89.8725801,22.9457571 90.1321092,25.5465378 C90.4074318,28.2611268 90.4671918,33.2734386 93.8521667,34.8568411 C97.1615881,36.4070496 100.324171,36.0820058 102.440527,34.1994253 C103.247713,34.5007589 104.310587,34.7490681 105.656467,34.7939017 C111.45361,34.9840135 113.044932,31.3300739 113.044932,31.3300739 C113.044932,31.3300739 114.128295,34.4106604 116.47985,34.2929722 C120.100876,34.1162243 121.227352,29.1603857 121.227352,29.1603857 C121.227352,32.2336436 123.523415,34.9840135 129.121216,34.8098521 C132.921523,34.6930261 135.373388,29.9514403 135.373388,29.9514403 C134.430462,33.9778436 132.875422,55.5984228 134.256731,56.8964421 C135.642735,58.1923058 138.154361,58.0409925 138.834771,56.6550303 C138.834771,56.6550303 138.964962,41.9297747 140.051313,31.6568421 C141.137664,21.3787361 143.213469,19.0241093 143.213469,19.0241093 C143.213469,19.0241093 142.503179,16.444021 139.150645,16.873389 L139.150645,16.873389 L139.150645,16.873389 Z M71.0951464,21.2925176 C73.8560565,21.8171571 71.9928263,28.4150268 66.557231,29.4479243 C64.7896166,26.5734 68.4597321,20.7920193 71.0951464,21.2925176 L71.0951464,21.2925176 L71.0951464,21.2925176 Z M103.735611,29.7471025 C101.67005,25.7405294 108.127968,20.5639714 112.283846,26.59711 L112.310739,28.6935126 C111.63289,31.7702193 105.792634,33.7260857 103.735611,29.7471025 L103.735611,29.7471025 L103.735611,29.7471025 Z" id="Fill-3" fill="#333C46"></path>
                    <path d="M148.537227,14.3579647 C148.356667,24.7511722 145.531728,33.98819 146.56088,35.7207504 C146.974931,36.4204135 152.1113,36.2009874 152.094653,35.5146882 C152.039161,33.3458622 152.371683,28.6659228 153.312049,20.8368529 C155.139423,21.4718521 156.391821,33.8838656 161.200363,33.7860075 C166.010186,33.6890118 171.566155,21.1062857 173.024299,17.6213344 C174.500796,17.5971932 171.099174,30.8485436 176.536477,41.2197656 C181.973353,51.5922807 192.952112,51.1021286 193.304696,49.4411294 C193.657707,47.7779747 182.319962,50.2390815 179.900536,32.7707849 C177.675332,16.6987967 183.571505,1.34845714 183.571505,1.34845714 C183.571505,1.34845714 178.849188,-1.21180084 176.058825,0.50782689 C173.267608,2.22788571 170.774764,21.6197168 162.282873,29.8397874 C161.503859,30.0652487 157.492258,21.4718521 156.92966,14.0549067 C156.706841,11.1247714 148.537227,14.3579647 148.537227,14.3579647" id="Fill-4" fill="#333C46"></path>
                    <path d="M185.48297,22.0615865 C185.48297,22.0615865 189.804896,20.6859706 189.996555,24.4632025 C190.10583,26.6229757 190.096866,32.3586604 189.503961,33.1949799 C189.085643,33.7851454 186.243202,33.7726436 185.663957,33.5510622 C184.76457,33.2066193 185.258016,25.4573017 185.48297,22.0615865" id="Fill-5" fill="#333C46"></path>
                    <path d="M188.225953,2.1429605 C188.369377,2.075279 188.385171,2.1149395 188.94051,2.1149395 C189.495852,2.1149395 195.183292,2.11537058 195.394159,2.11537058 C195.605028,2.11537058 195.707473,2.09683361 195.810345,2.18865629 C195.913645,2.2800479 195.876082,2.43351681 195.856872,2.46843529 C195.83681,2.5024916 192.521414,10.502274 192.486838,10.6298773 C192.450982,10.7566185 192.516291,10.9462992 192.718621,10.9480235 C192.922232,10.950179 194.063647,10.9480235 194.166092,10.9480235 C194.268539,10.9480235 194.525506,11.0614008 194.357752,11.3493706 C194.190424,11.6373403 188.659639,18.5658579 188.538411,18.7132915 C188.417611,18.8607253 188.097469,18.864605 188.097469,18.5533564 C188.097469,18.2421075 188.585365,11.3532504 188.585365,11.2036614 C188.585365,11.0532101 188.482066,10.9613874 188.304495,10.9613874 C188.126068,10.9613874 186.083132,10.9579386 185.953367,10.9579386 C185.823176,10.9579386 185.643895,10.9139672 185.668227,10.6721244 C185.692558,10.4505429 187.709882,3.50305714 188.107713,2.29599832 C188.141862,2.18865629 188.211867,2.14985799 188.225953,2.1429605" id="Fill-6" fill="#D18316"></path>
                    <path d="M252.041055,13.8527244 C253.393338,13.8527244 254.443832,14.9136429 254.443832,16.2358034 C254.443832,17.5872782 253.393338,18.6335396 252.026542,18.6335396 C250.67426,18.6335396 249.594739,17.5872782 249.594739,16.2358034 C249.594739,14.9136429 250.67426,13.8527244 252.026542,13.8527244 L252.041055,13.8527244 L252.041055,13.8527244 Z M252.012456,14.3325303 C250.976474,14.3325303 250.199594,15.189542 250.199594,16.2358034 C250.199594,17.2967218 250.976474,18.1395075 252.041055,18.1395075 C253.077037,18.1537336 253.839402,17.2967218 253.839402,16.2358034 C253.839402,15.189542 253.077037,14.3325303 252.026542,14.3325303 L252.012456,14.3325303 L252.012456,14.3325303 Z M251.652615,17.4708832 L251.105812,17.4708832 L251.105812,15.1024614 C251.3218,15.058921 251.624016,15.0153807 252.012456,15.0153807 C252.458093,15.0153807 252.659571,15.0878042 252.832448,15.2041992 C252.961785,15.305937 253.062523,15.4947555 253.062523,15.7128882 C253.062523,15.9887874 252.861047,16.192263 252.573345,16.2793437 L252.573345,16.3086579 C252.803422,16.3810815 252.933186,16.5699 253.004898,16.8897706 C253.077037,17.2527504 253.119723,17.3980286 253.177775,17.4708832 L252.587432,17.4708832 C252.51572,17.3838025 252.472607,17.1803268 252.400895,16.9039967 C252.357355,16.6427546 252.213505,16.5263597 251.911291,16.5263597 L251.652615,16.5263597 L251.652615,17.4708832 L251.652615,17.4708832 Z M251.666702,16.1340655 L251.925804,16.1340655 C252.228018,16.1340655 252.472607,16.0323277 252.472607,15.7853118 C252.472607,15.567179 252.31467,15.4219008 251.968916,15.4219008 C251.825065,15.4219008 251.724327,15.436558 251.666702,15.4512151 L251.666702,16.1340655 L251.666702,16.1340655 Z" id="Fill-7" fill="#333C46"></path>
                </g>
            </g>
        </g>
    </g>
</svg>